<svg width="32" height="32" viewBox="0 0 32 32" fill="none" xmlns="http://www.w3.org/2000/svg">
<path d="M16 32C24.8366 32 32 24.8366 32 16C32 7.16344 24.8366 0 16 0C7.16344 0 0 7.16344 0 16C0 24.8366 7.16344 32 16 32Z" fill="#242424"/>
<path d="M13.06 23.874L15.743 21.177L18.437 23.874L16.718 25.596C16.5901 25.7243 16.4381 25.826 16.2708 25.8955C16.1035 25.9649 15.9241 26.0006 15.743 26.0006C15.5618 26.0006 15.3825 25.9649 15.2152 25.8955C15.0479 25.826 14.8959 25.7243 14.768 25.596L13.06 23.874ZM20.01 14.632L17.318 11.935L20.011 9.23802L22.703 11.935L20.01 14.632ZM19.341 22.995L16.648 20.298L23.878 13.056L25.596 14.777C26.135 15.317 26.135 16.19 25.596 16.73L19.341 22.995ZM11.938 22.717L9.24598 20.02L16.464 12.79L19.156 15.487L11.938 22.717ZM8.11598 18.917L6.39698 17.195C6.14027 16.9342 5.99747 16.5823 5.99991 16.2163C6.00235 15.8504 6.14982 15.5004 6.40998 15.243L8.12798 13.521L10.821 16.219L8.11598 18.917ZM18.883 8.12902L11.653 15.367L8.95998 12.67L15.215 6.40402C15.3429 6.27576 15.4949 6.174 15.6622 6.10456C15.8295 6.03513 16.0088 5.99939 16.19 5.99939C16.3711 5.99939 16.5505 6.03513 16.7178 6.10456C16.8851 6.174 17.0371 6.27576 17.165 6.40402L18.883 8.12902Z" fill="white"/>
</svg>
