<svg width="32" height="32" viewBox="0 0 32 32" fill="none" xmlns="http://www.w3.org/2000/svg">
<path d="M16 32C24.8366 32 32 24.8366 32 16C32 7.16344 24.8366 0 16 0C7.16344 0 0 7.16344 0 16C0 24.8366 7.16344 32 16 32Z" fill="#7F27FF"/>
<path d="M15.376 14H8.02V21.222C8.012 21.961 8.308 22.672 8.84 23.194C9.372 23.716 10.097 24.007 10.85 24H15.377L15.376 14ZM15.546 10.221H16.338C17.122 8.87102 17.84 7.95302 18.515 7.45702C19.347 6.84402 20.199 6.83902 20.867 7.49502C21.491 8.10702 21.608 8.87502 21.197 9.61502C21.081 9.82102 20.927 10.023 20.734 10.221H23.642C24.321 10.221 25 10.779 25 11.554C25 12.221 24.431 12.888 23.642 12.888H16.508V11.11H15.376V12.888H8.358C7.68 12.888 7 12.33 7 11.554C7 10.888 7.569 10.221 8.358 10.221H11.298C11.114 10.0496 10.9503 9.85768 10.81 9.64902C10.323 8.90502 10.382 8.11902 11.017 7.49502C11.685 6.83902 12.537 6.84502 13.37 7.45702C14.044 7.95302 14.762 8.87202 15.547 10.221H15.546ZM14.231 10.221C13.651 9.29802 13.133 8.67102 12.691 8.34602C12.282 8.04602 12.058 8.04402 11.817 8.28002C11.57 8.52302 11.555 8.73102 11.762 9.04702C11.998 9.40802 12.495 9.81502 13.211 10.221H14.231ZM17.653 10.221H18.873C19.556 9.82902 20.007 9.43302 20.203 9.08102C20.373 8.77702 20.337 8.54602 20.067 8.28102C19.826 8.04402 19.602 8.04502 19.194 8.34602C18.751 8.67102 18.232 9.29802 17.654 10.221H17.653ZM16.508 13.999H23.865V21.222C23.8682 21.589 23.7971 21.9528 23.6562 22.2917C23.5153 22.6306 23.3074 22.9375 23.045 23.194C22.5084 23.7185 21.7854 24.0085 21.035 24H16.508V13.999Z" fill="white"/>
</svg>
