<svg width="32" height="32" viewBox="0 0 32 32" fill="none" xmlns="http://www.w3.org/2000/svg">
<path d="M16 32C24.8366 32 32 24.8366 32 16C32 7.16344 24.8366 0 16 0C7.16344 0 0 7.16344 0 16C0 24.8366 7.16344 32 16 32Z" fill="#00316D"/>
<path d="M18.1559 19.887C18.1429 19.863 18.1409 19.853 18.1359 19.85C17.5159 19.557 16.8959 19.263 16.2739 18.974C16.2409 18.958 16.1739 18.962 16.1529 18.985C15.8829 19.275 15.6189 19.572 15.3509 19.869C15.5449 20.012 17.9939 20.013 18.1559 19.887ZM12.4819 12.724L12.4199 12.594C12.3679 12.631 12.2999 12.658 12.2659 12.708C11.6931 13.5603 11.1237 14.415 10.5579 15.272C10.5229 15.326 10.5249 15.405 10.5079 15.472C10.5779 15.458 10.6559 15.461 10.7129 15.426C11.1987 15.1339 11.6801 14.8345 12.1569 14.528C12.2408 14.4689 12.2985 14.3797 12.3179 14.279C12.3819 13.779 12.4259 13.276 12.4819 12.724ZM24.4789 19.974H25.3049C25.4639 19.974 25.5249 19.914 25.4239 19.761C24.8989 18.959 24.3759 18.156 23.8489 17.357C23.8209 17.313 23.7569 17.294 23.7089 17.264C23.6839 17.314 23.6409 17.364 23.6359 17.417C23.5749 18.199 23.5199 18.981 23.4599 19.763C23.4489 19.912 23.5009 19.979 23.6529 19.976C23.9279 19.97 24.2029 19.974 24.4789 19.974ZM6.74495 19.914C6.87095 19.944 6.93295 19.972 6.99395 19.973C7.88695 19.975 8.77995 19.973 9.67195 19.975C9.84495 19.975 9.88895 19.914 9.81595 19.747C9.5358 19.1117 9.26179 18.4736 8.99395 17.833C8.91595 17.646 8.84395 17.655 8.72095 17.787C8.24495 18.301 7.76495 18.81 7.28695 19.321C7.11995 19.501 6.95695 19.681 6.74495 19.914ZM19.9399 15.301C19.9979 15.414 20.0169 15.463 20.0459 15.505L21.2539 17.259C21.7529 17.984 22.2509 18.709 22.7539 19.431C22.7879 19.481 22.8539 19.508 22.9039 19.545C22.9299 19.485 22.9719 19.428 22.9799 19.366C22.9999 19.196 23.0039 19.026 23.0149 18.856C23.0689 18.081 23.1289 17.307 23.1749 16.533C23.1949 16.203 23.0519 16.033 22.7389 15.955C21.9039 15.746 21.0689 15.536 20.2329 15.329C20.1579 15.311 20.0789 15.314 19.9399 15.301ZM19.7279 10.166L19.6519 10.179C19.6419 10.332 19.6269 10.486 19.6219 10.641L19.5109 14.412C19.5059 14.55 19.5469 14.622 19.6899 14.656C20.5559 14.866 21.4199 15.087 22.2859 15.3C22.3609 15.318 22.4439 15.301 22.5229 15.3C22.5029 15.223 22.4989 15.136 22.4619 15.068C21.5989 13.498 20.7339 11.928 19.8669 10.36C19.8289 10.291 19.7749 10.23 19.7279 10.166ZM15.8429 17.873C15.8669 17.74 15.8899 17.66 15.8929 17.58C15.9059 17.161 15.9069 16.742 15.9259 16.323C15.9439 16.0038 15.849 15.6884 15.6579 15.432C14.864 14.3303 14.0723 13.227 13.2829 12.122C13.2469 12.072 13.2319 12.007 13.2069 11.949L13.1129 12.005C13.0899 12.089 13.0539 12.172 13.0449 12.257C12.9749 12.937 12.9149 13.617 12.8399 14.295C12.8285 14.3664 12.8341 14.4394 12.8561 14.5082C12.8782 14.577 12.9162 14.6396 12.9669 14.691C13.8619 15.688 14.7509 16.691 15.6439 17.691C15.6919 17.745 15.7499 17.789 15.8429 17.873ZM16.4199 17.664L16.4799 17.704C16.5349 17.661 16.5999 17.627 16.6439 17.574C17.4043 16.6509 18.162 15.7255 18.9169 14.798C18.9632 14.7392 18.9905 14.6677 18.9949 14.593C19.0309 13.358 19.0619 12.123 19.0899 10.888C19.0919 10.82 19.0529 10.751 19.0319 10.683C18.9769 10.736 18.8999 10.779 18.8689 10.843C18.1689 12.325 17.4999 13.822 16.7659 15.285C16.3779 16.059 16.4399 16.858 16.4199 17.665V17.664ZM12.9169 19.975C13.3979 19.975 13.8799 19.982 14.3609 19.969C14.4707 19.9638 14.575 19.9195 14.6549 19.844C14.9899 19.493 15.3039 19.121 15.6379 18.769C15.7629 18.639 15.7349 18.559 15.6289 18.443C15.0646 17.8309 14.5052 17.2142 13.9509 16.593C13.8169 16.443 13.7399 16.444 13.6199 16.608C12.8589 17.649 12.0899 18.683 11.3249 19.722C11.2869 19.774 11.2729 19.843 11.2469 19.904C11.3139 19.928 11.3809 19.971 11.4489 19.971C11.9389 19.977 12.4269 19.975 12.9169 19.975ZM13.4149 16.009C13.1489 15.7 12.8879 15.409 12.6409 15.104C12.5369 14.977 12.4569 14.964 12.3169 15.051C11.4809 15.577 10.6359 16.089 9.80195 16.618C9.65095 16.714 9.53195 16.863 9.40395 16.994C9.28495 17.116 9.30095 17.25 9.36595 17.4C9.69095 18.143 10.0079 18.889 10.3289 19.634C10.4509 19.914 10.4969 19.919 10.6839 19.669C11.1789 19.009 11.6719 18.346 12.1649 17.685L13.4149 16.009ZM19.2099 15.221C19.1449 15.326 19.1139 15.39 19.0699 15.442C18.2779 16.408 17.4849 17.374 16.6869 18.336C16.5569 18.493 16.6239 18.555 16.7709 18.622C17.6879 19.042 18.6009 19.469 19.5199 19.887C19.6376 19.94 19.7649 19.9686 19.8939 19.971C20.6499 19.978 21.4069 19.976 22.1639 19.972C22.2339 19.972 22.3049 19.94 22.3759 19.922C22.3509 19.848 22.3399 19.763 22.2959 19.7C21.5983 18.6813 20.8987 17.6639 20.1969 16.648C19.8869 16.198 19.5749 15.748 19.2099 15.221ZM15.9929 20.998C12.5509 20.998 9.10895 20.997 5.66695 21C5.39895 21 5.15695 20.97 5.04095 20.682C4.93095 20.409 5.05895 20.207 5.23795 20.016C6.26595 18.918 7.30795 17.832 8.30795 16.71C8.68995 16.282 8.98495 15.773 9.30795 15.292C10.3429 13.744 11.3699 12.19 12.4099 10.646C12.5119 10.495 12.6679 10.342 12.8319 10.282C13.0579 10.198 13.2509 10.328 13.3949 10.534C14.2319 11.73 15.0749 12.922 15.9159 14.116C16.0889 14.36 16.1509 14.352 16.2789 14.074L18.8729 8.42401C18.9749 8.20201 19.1099 8.01301 19.3729 8.00101C19.6479 7.98801 19.8149 8.15501 19.9439 8.39101C21.2459 10.753 22.5179 13.135 23.8709 15.467C24.6889 16.877 25.6359 18.208 26.5249 19.575C26.6349 19.743 26.7459 19.91 26.8539 20.08C26.9839 20.285 27.0609 20.51 26.9389 20.737C26.8189 20.957 26.5969 20.999 26.3639 20.999C22.9069 20.997 19.4499 20.998 15.9929 20.998Z" fill="white"/>
</svg>
