<svg width="32" height="32" viewBox="0 0 32 32" fill="none" xmlns="http://www.w3.org/2000/svg">
<path d="M16 32C24.8366 32 32 24.8366 32 16C32 7.16344 24.8366 0 16 0C7.16344 0 0 7.16344 0 16C0 24.8366 7.16344 32 16 32Z" fill="#96B73D"/>
<path d="M11.5939 16.105C11.6799 16.363 11.8069 16.605 11.9709 16.823L9.47794 14.305C9.21816 14.043 9.07241 13.689 9.07241 13.32C9.07241 12.951 9.21816 12.597 9.47794 12.335L12.6229 9.188C12.6879 9.14 12.7499 9.088 12.8099 9.034L12.9009 8.954L15.4479 6.405C15.576 6.27636 15.7283 6.17435 15.896 6.10483C16.0637 6.03531 16.2435 5.99966 16.4251 5.99994C16.6066 6.00022 16.7863 6.03642 16.9538 6.10645C17.1213 6.17648 17.2732 6.27897 17.4009 6.408L25.7439 14.811C25.9341 15.0812 26.0231 15.4097 25.9955 15.7389C25.9679 16.0682 25.8254 16.3772 25.5929 16.612C25.3634 16.8434 25.0615 16.9891 24.7375 17.0246C24.4135 17.0601 24.0871 16.9833 23.8129 16.807L16.4429 9.367L16.4349 9.357L16.4109 9.331L12.4679 13.275L12.4079 13.325C12.4057 13.3277 12.4033 13.3304 12.4009 13.333L16.2969 17.26C16.4685 17.4333 16.5917 17.6485 16.6544 17.8842C16.7172 18.1198 16.7172 18.3678 16.6546 18.6035C16.5919 18.8392 16.4687 19.0544 16.2972 19.2278C16.1257 19.4012 15.9119 19.5267 15.6769 19.592C15.4421 19.6553 15.1946 19.6552 14.9598 19.5918C14.7249 19.5284 14.5111 19.4039 14.3399 19.231L12.3439 17.221C12.3149 17.195 12.2859 17.161 12.2499 17.125L12.1579 17.033C12.091 16.9577 12.0286 16.8786 11.9709 16.796L12.0159 16.849L11.9859 16.81C11.8184 16.5975 11.6861 16.3594 11.5939 16.105ZM19.7399 18.678L15.8389 14.749C15.5792 14.487 15.4334 14.133 15.4334 13.764C15.4334 13.395 15.5792 13.041 15.8389 12.779C15.9673 12.6502 16.1199 12.5481 16.2879 12.4786C16.4559 12.409 16.636 12.3734 16.8178 12.3738C16.9996 12.3741 17.1795 12.4105 17.3473 12.4807C17.515 12.551 17.6671 12.6537 17.7949 12.783L19.7919 14.793C19.8199 14.818 19.8489 14.853 19.8859 14.888L19.9769 14.98C20.0289 15.038 20.0769 15.1 20.1209 15.163L20.1429 15.19C20.1149 15.1499 20.0862 15.1102 20.0569 15.071L22.6669 17.698C22.9271 17.9602 23.0731 18.3146 23.0731 18.684C23.0731 19.0534 22.9271 19.4078 22.6669 19.67L19.5199 22.818C19.4541 22.865 19.3906 22.9154 19.3299 22.969L16.7059 25.593C16.578 25.722 16.4258 25.8244 16.2581 25.8942C16.0905 25.9641 15.9106 26.0001 15.7289 26.0001C15.5473 26.0001 15.3674 25.9641 15.1997 25.8942C15.0321 25.8244 14.8799 25.722 14.7519 25.593L6.27494 17.046C6.0684 16.7657 5.973 16.4189 6.00717 16.0725C6.04133 15.726 6.20264 15.4045 6.45994 15.17C6.71643 14.9367 7.05119 14.8083 7.39789 14.8101C7.7446 14.812 8.07796 14.944 8.33194 15.18L15.7159 22.635L15.7409 22.665L19.6759 18.731L19.7339 18.684C19.7359 18.682 19.7379 18.68 19.7399 18.678Z" fill="white"/>
</svg>
