<svg width="32" height="32" viewBox="0 0 32 32" fill="none" xmlns="http://www.w3.org/2000/svg">
<path d="M16 32C24.8366 32 32 24.8366 32 16C32 7.16344 24.8366 0 16 0C7.16344 0 0 7.16344 0 16C0 24.8366 7.16344 32 16 32Z" fill="#F58634"/>
<path d="M13.288 22.7769H13.292C14.481 22.6329 15.481 22.2729 16.292 21.6969C17.366 20.9269 17.903 19.9489 17.903 18.7629C17.903 17.7629 17.51 16.9259 16.725 16.2409C15.938 15.5579 14.872 15.1429 13.527 14.9989C13.07 14.9399 12.422 14.8969 11.59 14.8489C9.77598 14.7389 8.59898 14.4909 8.05298 14.1019C7.85888 13.9627 7.6955 13.785 7.57298 13.5799C7.46919 13.3935 7.41545 13.1833 7.41698 12.9699C7.41698 12.4089 7.74098 11.9349 8.39398 11.5619C9.04598 11.1899 9.86998 10.9999 10.872 10.9999C11.821 10.9999 12.762 11.1619 13.652 11.4799C17.478 12.8439 21.132 17.6119 23.565 21.0259C21.582 22.2309 18.881 22.9739 15.905 22.9739C15.029 22.9739 14.154 22.9089 13.288 22.7769ZM9.00898 20.8349C5.51598 19.5599 3.98698 16.4089 5.71198 13.3489C5.75998 13.7789 5.91898 14.1919 6.17498 14.5489C6.49498 14.9979 6.96498 15.3629 7.58198 15.6499C9.73698 16.5859 13.7 15.9879 15.332 17.1769C15.881 17.5769 16.156 18.0879 16.156 18.7109C16.156 19.4939 15.773 20.1349 15.007 20.6329C14.242 21.1309 13.246 21.3799 12.02 21.3799C10.9926 21.3742 9.97413 21.1897 9.00998 20.8349H9.00898Z" fill="white"/>
<path opacity="0.5" d="M26.084 18.875V13.021C26.741 13.91 27.108 14.903 27.108 15.948C27.108 16.994 26.741 17.985 26.084 18.875ZM24.435 11.415L24.44 18.876C22.097 15.55 18.596 11.365 14.293 9.96699C13.5486 9.7239 12.7796 9.56393 12 9.48999C13.334 9.16125 14.7031 8.9967 16.077 8.99999C19.417 8.99999 22.412 9.93599 24.435 11.415Z" fill="white"/>
</svg>
