<svg width="32" height="32" viewBox="0 0 32 32" fill="none" xmlns="http://www.w3.org/2000/svg">
<path d="M16 32C24.8366 32 32 24.8366 32 16C32 7.16344 24.8366 0 16 0C7.16344 0 0 7.16344 0 16C0 24.8366 7.16344 32 16 32Z" fill="#338BE5"/>
<path d="M22.6301 16.918C23.3601 17.114 24.0801 17.341 24.7281 17.74C25.0161 17.917 25.2851 18.125 25.5281 18.359C25.8881 18.759 25.8641 19.181 25.5361 19.604C25.2481 19.972 24.8561 20.207 24.4391 20.403C23.3831 20.912 22.2631 21.202 21.1191 21.374C20.1901 21.514 19.2461 21.594 18.3091 21.711C18.2651 21.7204 18.2233 21.7384 18.1862 21.764C18.1492 21.7895 18.1175 21.8222 18.0931 21.86C17.4371 22.838 16.7891 23.817 16.1331 24.796C16.0804 24.8606 16.0323 24.9287 15.9891 25C15.2962 23.9604 14.6106 22.916 13.9321 21.867C13.9035 21.8179 13.8627 21.7769 13.8136 21.7482C13.7646 21.7195 13.7089 21.7039 13.6521 21.703C11.7791 21.57 9.93109 21.327 8.16209 20.693C7.60209 20.497 7.06609 20.254 6.60209 19.886C6.57709 19.862 6.54509 19.846 6.52209 19.823C5.84209 19.252 5.82509 18.641 6.48209 18.053C7.00209 17.583 7.64209 17.317 8.30609 17.113C8.97009 16.909 9.64209 16.761 10.3151 16.589C10.3471 16.581 10.3791 16.581 10.4351 16.565C8.98609 14.349 7.55409 12.156 6.08909 9.932C6.17709 9.924 6.24109 9.916 6.29709 9.916C7.20209 9.908 8.10609 9.916 9.01009 9.908C9.07401 9.90416 9.13765 9.91917 9.19311 9.95117C9.24857 9.98317 9.29342 10.0307 9.32209 10.088C11.5121 13.428 13.7001 16.769 15.8851 20.113C15.9172 20.1689 15.9547 20.2215 15.9971 20.27C16.5011 19.51 16.9891 18.782 17.4691 18.053C19.2291 15.393 20.9901 12.736 22.7511 10.081C22.8151 9.987 22.8631 9.916 23.0071 9.916C23.9591 9.924 24.9121 9.924 25.8641 9.924C25.9091 9.924 25.9541 9.926 26.0001 9.932C24.5142 12.1738 23.0255 14.4138 21.5341 16.652C21.9111 16.745 22.2711 16.824 22.6311 16.918H22.6301ZM8.89809 18.798C9.08409 19.005 9.30309 19.183 9.54609 19.322C10.5461 19.855 11.6511 20.05 12.7961 20.222C12.7801 20.168 12.7801 20.144 12.7721 20.129C12.1231 19.149 11.4831 18.163 10.8351 17.184C10.8091 17.1585 10.7774 17.1394 10.7427 17.1285C10.7079 17.1176 10.671 17.115 10.6351 17.121C10.2551 17.246 9.88309 17.395 9.52209 17.568C9.2884 17.6968 9.07976 17.8664 8.90609 18.069C8.80902 18.1648 8.75372 18.295 8.75222 18.4314C8.75072 18.5677 8.80315 18.6991 8.89809 18.797V18.798ZM21.5021 19.643C21.9382 19.5252 22.3373 19.2989 22.6621 18.985C22.9831 18.665 22.9831 18.304 22.6621 17.975C22.5827 17.8891 22.4915 17.815 22.3911 17.755C22.0471 17.583 21.6871 17.419 21.3341 17.247C21.2141 17.184 21.1421 17.231 21.0701 17.341C20.6941 17.921 20.3101 18.491 19.9261 19.064C19.6861 19.424 19.4461 19.792 19.1981 20.168C19.2618 20.176 19.3263 20.176 19.3901 20.168C20.0941 19.996 20.8061 19.839 21.5021 19.643ZM21.5101 9L16.0291 17.732L10.4751 9H21.5101Z" fill="white"/>
</svg>
