<svg width="32" height="32" viewBox="0 0 32 32" fill="none" xmlns="http://www.w3.org/2000/svg">
<path d="M16 32C24.8366 32 32 24.8366 32 16C32 7.16344 24.8366 0 16 0C7.16344 0 0 7.16344 0 16C0 24.8366 7.16344 32 16 32Z" fill="#FF6600"/>
<path d="M28 16.1539C28 22.7819 22.628 28.1539 16 28.1539C9.372 28.1539 4 22.7819 4 16.1539C4 13.4729 4.881 10.9979 6.362 9.00094L8.322 10.9609C7.28134 12.4926 6.7259 14.3022 6.728 16.1539C6.728 21.2639 10.881 25.4159 15.991 25.4159C21.1 25.4159 25.253 21.2629 25.253 16.1539C25.2522 14.3023 24.697 12.4933 23.659 10.9599L25.619 8.99994C27.1697 11.0621 28.0057 13.5738 28 16.1539Z" fill="white"/>
<path d="M22.275 16.2919C22.2731 18.0516 21.5733 19.7387 20.329 20.983C19.0847 22.2272 17.3977 22.9271 15.638 22.9289C13.8782 22.9274 12.1908 22.2276 10.9463 20.9833C9.70184 19.739 9.00185 18.0518 9 16.2919C9 15.1389 9.3 14.0049 9.872 13.0019L15.638 18.7659L21.404 12.9999C21.9757 14.0029 22.2763 15.1375 22.276 16.2919" fill="white"/>
<path d="M23.694 6.92498L15.847 14.762L9.866 8.79098L8 6.92498C10.1752 5.03197 12.9634 3.99264 15.847 3.99998C18.847 3.99998 21.585 5.09698 23.694 6.92498Z" fill="white"/>
</svg>
