<svg width="32" height="32" viewBox="0 0 32 32" fill="none" xmlns="http://www.w3.org/2000/svg">
<path d="M16 32C24.8366 32 32 24.8366 32 16C32 7.16344 24.8366 0 16 0C7.16344 0 0 7.16344 0 16C0 24.8366 7.16344 32 16 32Z" fill="#23B852"/>
<path d="M18.7251 19.148H22.1151V22.112H11.9301L24.573 9.45997C24.7735 9.25707 24.9106 9.00015 24.9674 8.72062C25.0242 8.44109 24.9984 8.15106 24.893 7.88597C24.7812 7.62251 24.5942 7.3979 24.3553 7.24029C24.1164 7.08268 23.8363 6.99908 23.55 6.99997H8.45005C8.25909 6.99864 8.06978 7.0353 7.89312 7.10783C7.71647 7.18035 7.556 7.28728 7.42106 7.42241C7.28613 7.55753 7.17941 7.71814 7.10713 7.8949C7.03486 8.07165 6.99845 8.26102 7.00005 8.45197V19.148L13.275 12.868H9.88505V9.88797H20.0531L7.42705 22.54C7.22656 22.7429 7.08952 22.9998 7.03269 23.2793C6.97586 23.5589 7.0017 23.8489 7.10705 24.114C7.33605 24.649 7.85505 25 8.45005 25H23.55C23.7406 25 23.9293 24.9624 24.1054 24.8894C24.2815 24.8164 24.4414 24.7094 24.5761 24.5746C24.7107 24.4397 24.8175 24.2796 24.8902 24.1035C24.963 23.9273 25.0003 23.7386 25 23.548V12.868L18.7251 19.148Z" fill="white"/>
</svg>
